<?xml version="1.0" ?><!DOCTYPE svg  PUBLIC '-//W3C//DTD SVG 1.1//EN'  'http://www.w3.org/Graphics/SVG/1.1/DTD/svg11.dtd'><svg height="512pt" version="1.1" viewBox="0 0 512 512" width="512pt" xmlns="http://www.w3.org/2000/svg"><g id="#007ab9ff"><path d=" M 28.18 25.19 C 37.01 17.01 48.91 12.24 60.93 12.00 C 177.96 11.99 294.98 12.01 412.00 11.99 C 416.88 12.06 421.93 11.63 426.62 13.27 C 432.06 16.10 437.81 18.49 442.66 22.31 C 454.79 31.59 462.00 46.74 462.01 61.97 C 461.99 174.98 462.00 287.99 462.00 401.00 C 462.06 409.89 462.50 419.03 459.52 427.56 C 453.33 447.30 433.79 461.89 413.06 461.98 C 296.03 462.03 179.00 461.98 61.97 462.01 C 49.85 462.24 38.48 457.08 28.80 450.16 C 19.11 440.24 12.02 427.18 12.02 413.03 C 11.97 296.01 12.03 179.00 11.99 61.98 C 11.94 48.17 17.96 34.47 28.18 25.19 M 125.42 105.71 C 117.65 107.66 110.54 112.45 106.24 119.27 C 99.20 130.49 100.08 146.20 108.63 156.39 C 116.79 166.30 130.72 169.53 142.98 167.34 C 153.10 165.86 162.72 159.65 167.15 150.26 C 173.51 137.40 170.01 120.28 158.55 111.45 C 149.29 104.28 136.56 102.99 125.42 105.71 M 280.67 198.67 C 272.70 203.81 266.65 211.26 261.33 218.99 C 261.30 210.35 261.52 201.72 261.24 193.09 C 240.89 193.05 220.54 192.98 200.20 193.13 C 200.90 254.41 200.26 315.71 200.18 377.00 C 220.53 377.25 240.90 377.15 261.25 377.05 C 261.54 341.68 261.21 306.31 261.41 270.94 C 261.23 260.87 266.22 251.23 273.69 244.69 C 284.53 235.22 302.37 234.14 313.75 243.21 C 323.05 251.23 325.37 264.27 325.71 275.95 C 325.90 309.65 325.59 343.35 325.86 377.05 C 346.21 377.17 366.57 377.18 386.92 377.05 C 387.04 341.70 386.95 306.34 386.96 270.99 C 386.84 251.35 383.13 230.80 371.39 214.58 C 362.00 201.36 347.02 192.63 331.10 190.01 C 314.04 187.15 295.34 188.84 280.67 198.67 M 105.18 193.12 C 105.14 254.41 105.13 315.71 105.19 377.00 C 125.53 377.25 145.88 377.15 166.23 377.05 C 166.47 358.70 166.26 340.35 166.33 322.00 C 166.25 279.03 166.48 236.06 166.22 193.09 C 145.87 193.04 125.52 192.99 105.18 193.12 Z" fill="#007ab9" opacity="1.00"/></g><g id="#005d8dff"><path d=" M 426.62 13.27 C 435.42 15.09 443.11 20.35 449.36 26.64 C 460.97 38.03 472.55 49.45 484.15 60.85 C 491.58 67.57 497.76 76.61 498.01 86.94 C 497.99 200.96 498.00 314.98 498.00 429.00 C 497.74 440.98 499.24 453.39 494.89 464.87 C 487.80 485.66 467.06 500.92 445.01 500.98 C 329.68 501.03 214.34 500.99 99.00 501.00 C 89.82 500.93 80.03 501.95 71.65 497.35 C 63.03 493.49 56.84 486.16 50.79 479.18 C 43.03 469.85 35.27 460.44 28.80 450.16 C 38.48 457.08 49.85 462.24 61.97 462.01 C 179.00 461.98 296.03 462.03 413.06 461.98 C 433.79 461.89 453.33 447.30 459.52 427.56 C 462.50 419.03 462.06 409.89 462.00 401.00 C 462.00 287.99 461.99 174.98 462.01 61.97 C 462.00 46.74 454.79 31.59 442.66 22.31 C 437.81 18.49 432.06 16.10 426.62 13.27 Z" fill="#005d8d" opacity="1.00"/></g><g id="#f1f2f2ff"><path d=" M 125.42 105.71 C 136.56 102.99 149.29 104.28 158.55 111.45 C 170.01 120.28 173.51 137.40 167.15 150.26 C 162.72 159.65 153.10 165.86 142.98 167.34 C 130.72 169.53 116.79 166.30 108.63 156.39 C 100.08 146.20 99.20 130.49 106.24 119.27 C 110.54 112.45 117.65 107.66 125.42 105.71 Z" fill="#f1f2f2" opacity="1.00"/><path d=" M 280.67 198.67 C 295.34 188.84 314.04 187.15 331.10 190.01 C 347.02 192.63 362.00 201.36 371.39 214.58 C 383.13 230.80 386.84 251.35 386.96 270.99 C 386.95 306.34 387.04 341.70 386.92 377.05 C 366.57 377.18 346.21 377.17 325.86 377.05 C 325.59 343.35 325.90 309.65 325.71 275.95 C 325.37 264.27 323.05 251.23 313.75 243.21 C 302.37 234.14 284.53 235.22 273.69 244.69 C 266.22 251.23 261.23 260.87 261.41 270.94 C 261.21 306.31 261.54 341.68 261.25 377.05 C 240.90 377.15 220.53 377.25 200.18 377.00 C 200.26 315.71 200.90 254.41 200.20 193.13 C 220.54 192.98 240.89 193.05 261.24 193.09 C 261.52 201.72 261.30 210.35 261.33 218.99 C 266.65 211.26 272.70 203.81 280.67 198.67 Z" fill="#f1f2f2" opacity="1.00"/><path d=" M 105.18 193.12 C 125.52 192.99 145.87 193.04 166.22 193.09 C 166.48 236.06 166.25 279.03 166.33 322.00 C 166.26 340.35 166.47 358.70 166.23 377.05 C 145.88 377.15 125.53 377.25 105.19 377.00 C 105.13 315.71 105.14 254.41 105.18 193.12 Z" fill="#f1f2f2" opacity="1.00"/></g></svg>