<?xml version="1.0" ?><svg enable-background="new 0 0 512 512" id="Layer_1" version="1.1" viewBox="0 0 512 512" xml:space="preserve" xmlns="http://www.w3.org/2000/svg" xmlns:xlink="http://www.w3.org/1999/xlink"><g><g><linearGradient gradientUnits="userSpaceOnUse" id="SVGID_1_" x1="-0.0000027" x2="512" y1="256" y2="256"><stop offset="0" style="stop-color:#F35CB5"/><stop offset="1" style="stop-color:#EC008C"/></linearGradient><circle cx="256" cy="256" fill="url(#SVGID_1_)" r="256"/><linearGradient gradientUnits="userSpaceOnUse" id="SVGID_2_" x1="42.6666641" x2="469.3333435" y1="256.0005188" y2="256.0005188"><stop offset="0" style="stop-color:#EC008C"/><stop offset="1" style="stop-color:#F35CB5"/></linearGradient><path d="M256,469.3338623c-117.6315155,0-213.3333435-95.7023926-213.3333435-213.3333435    c0-117.6314545,95.7018204-213.333313,213.3333435-213.333313c117.6356812,0,213.3333435,95.7018661,213.3333435,213.333313    C469.3333435,373.6314697,373.6356812,469.3338623,256,469.3338623z" fill="url(#SVGID_2_)"/></g><g><rect height="10" opacity="0.3" width="186.9568024" x="170.5210266" y="175.2661285"/><rect height="10" opacity="0.3" width="135.1946716" x="196.4020844" y="147.317337"/><path d="M144.0004883,208.2165375v172.4661407h239.9989319V208.2165375H144.0004883z M238.3748932,351.9658813    h-68.3328094v-115.032547h68.3328094V351.9658813z M357.9573364,351.9658813h-94.9995117v-23.3664246h94.9995117V351.9658813z     M357.9573364,306.1322632h-94.9995117v-23.3658752h94.9995117V306.1322632z" opacity="0.3"/></g><g><rect fill="#FFFFFF" height="10" width="186.9568024" x="162.5210266" y="167.2661285"/><rect fill="#FFFFFF" height="10" width="135.1946716" x="188.4020844" y="139.317337"/><path d="M136.0004883,200.2165375v172.4661407h239.9989319V200.2165375H136.0004883z M230.3748932,343.9658813    h-68.3328094v-115.032547h68.3328094V343.9658813z M349.9573364,343.9658813h-94.9995117v-23.3664246h94.9995117V343.9658813z     M349.9573364,298.1322632h-94.9995117v-23.3658752h94.9995117V298.1322632z" fill="#FFFFFF"/></g></g></svg>