<?xml version="1.0" ?><!DOCTYPE svg  PUBLIC '-//W3C//DTD SVG 1.1//EN'  'http://www.w3.org/Graphics/SVG/1.1/DTD/svg11.dtd'><svg height="512pt" version="1.1" viewBox="0 0 512 512" width="512pt" xmlns="http://www.w3.org/2000/svg"><g id="#cb2027ff"><path d=" M 45.02 15.00 C 54.88 11.04 65.63 12.13 76.00 12.00 C 189.34 12.00 302.67 12.00 416.01 12.00 C 423.27 11.74 430.63 13.63 436.89 17.27 C 440.12 21.37 444.88 23.80 448.37 27.64 C 454.72 34.39 459.18 42.93 460.99 52.02 C 462.37 58.59 461.97 65.34 462.01 72.01 C 461.99 185.34 462.01 298.68 461.99 412.01 C 462.06 425.35 456.49 438.59 446.85 447.83 C 437.70 456.90 424.89 462.02 412.03 461.99 C 299.35 462.02 186.68 461.99 74.00 462.00 C 65.04 461.95 55.84 462.63 47.19 459.77 C 40.65 458.02 35.23 453.82 29.18 450.98 C 25.73 446.38 21.67 442.20 18.80 437.18 C 14.35 429.59 12.00 420.79 12.00 411.99 C 12.00 294.99 12.00 177.99 12.00 61.00 C 12.15 40.80 25.90 21.58 45.02 15.00 M 206.59 90.34 C 177.21 99.75 150.95 119.87 135.85 146.96 C 123.12 169.27 119.89 196.05 123.88 221.19 C 125.88 233.12 130.53 245.03 139.24 253.68 C 146.74 261.28 156.81 265.79 167.12 268.09 C 170.95 261.27 174.02 253.33 172.32 245.41 C 170.09 235.36 161.82 227.96 159.55 217.91 C 156.28 201.79 158.04 184.68 164.63 169.60 C 180.21 133.90 219.70 110.48 258.46 113.40 C 278.30 114.86 297.53 124.36 310.35 139.63 C 321.24 153.55 324.84 171.71 325.36 189.01 C 325.71 212.16 320.77 235.83 308.84 255.86 C 301.30 268.40 289.69 279.67 274.85 282.45 C 264.86 284.11 253.74 282.78 245.38 276.70 C 237.96 271.12 236.50 261.01 237.51 252.36 C 240.16 229.54 251.27 208.72 254.35 185.99 C 255.19 178.91 255.08 171.17 251.15 164.96 C 247.24 158.79 240.07 155.61 233.11 154.39 C 225.18 152.95 216.85 155.53 210.81 160.78 C 202.13 168.23 197.20 179.15 194.66 190.12 C 191.49 204.59 192.21 220.53 199.61 233.65 C 192.81 266.62 181.53 298.56 176.32 331.88 C 172.55 355.07 171.93 378.83 175.26 402.12 C 189.82 391.63 199.76 375.99 206.55 359.62 C 215.19 338.78 219.70 316.56 224.01 294.51 C 232.18 299.38 239.50 305.64 248.06 309.86 C 254.56 313.08 261.77 314.68 269.00 314.92 C 282.01 315.62 295.22 313.47 307.17 308.21 C 327.38 299.46 343.09 282.48 353.19 263.19 C 367.88 235.10 372.51 202.21 367.95 170.96 C 364.88 150.07 354.56 130.34 338.99 116.06 C 318.14 96.70 289.90 86.89 261.86 84.72 C 243.32 83.39 224.36 84.60 206.59 90.34 Z" fill="#cb2027" opacity="1.00"/></g><g id="#a71d22ff"><path d=" M 436.89 17.27 C 442.33 19.77 446.71 23.99 450.91 28.16 C 462.01 39.05 473.08 49.97 484.16 60.86 C 491.38 67.37 497.33 76.02 498.00 85.97 C 498.01 205.99 497.99 326.00 498.00 446.01 C 498.04 452.87 496.88 459.75 494.41 466.16 C 486.96 486.32 466.58 500.90 445.01 500.98 C 325.68 501.03 206.36 500.99 87.03 501.00 C 75.62 501.03 64.91 494.95 57.45 486.59 C 47.14 475.47 37.74 463.49 29.18 450.98 C 35.23 453.82 40.65 458.02 47.19 459.77 C 55.84 462.63 65.04 461.95 74.00 462.00 C 186.68 461.99 299.35 462.02 412.03 461.99 C 424.89 462.02 437.70 456.90 446.85 447.83 C 456.49 438.59 462.06 425.35 461.99 412.01 C 462.01 298.68 461.99 185.34 462.01 72.01 C 461.97 65.34 462.37 58.59 460.99 52.02 C 459.18 42.93 454.72 34.39 448.37 27.64 C 444.88 23.80 440.12 21.37 436.89 17.27 Z" fill="#a71d22" opacity="1.00"/></g><g id="#f1f2f2ff"><path d=" M 206.59 90.34 C 224.36 84.60 243.32 83.39 261.86 84.72 C 289.90 86.89 318.14 96.70 338.99 116.06 C 354.56 130.34 364.88 150.07 367.95 170.96 C 372.51 202.21 367.88 235.10 353.19 263.19 C 343.09 282.48 327.38 299.46 307.17 308.21 C 295.22 313.47 282.01 315.62 269.00 314.92 C 261.77 314.68 254.56 313.08 248.06 309.86 C 239.50 305.64 232.18 299.38 224.01 294.51 C 219.70 316.56 215.19 338.78 206.55 359.62 C 199.76 375.99 189.82 391.63 175.26 402.12 C 171.93 378.83 172.55 355.07 176.32 331.88 C 181.53 298.56 192.81 266.62 199.61 233.65 C 192.21 220.53 191.49 204.59 194.66 190.12 C 197.20 179.15 202.13 168.23 210.81 160.78 C 216.85 155.53 225.18 152.95 233.11 154.39 C 240.07 155.61 247.24 158.79 251.15 164.96 C 255.08 171.17 255.19 178.91 254.35 185.99 C 251.27 208.72 240.16 229.54 237.51 252.36 C 236.50 261.01 237.96 271.12 245.38 276.70 C 253.74 282.78 264.86 284.11 274.85 282.45 C 289.69 279.67 301.30 268.40 308.84 255.86 C 320.77 235.83 325.71 212.16 325.36 189.01 C 324.84 171.71 321.24 153.55 310.35 139.63 C 297.53 124.36 278.30 114.86 258.46 113.40 C 219.70 110.48 180.21 133.90 164.63 169.60 C 158.04 184.68 156.28 201.79 159.55 217.91 C 161.82 227.96 170.09 235.36 172.32 245.41 C 174.02 253.33 170.95 261.27 167.12 268.09 C 156.81 265.79 146.74 261.28 139.24 253.68 C 130.53 245.03 125.88 233.12 123.88 221.19 C 119.89 196.05 123.12 169.27 135.85 146.96 C 150.95 119.87 177.21 99.75 206.59 90.34 Z" fill="#f1f2f2" opacity="1.00"/></g></svg>