<?xml version="1.0" ?><!DOCTYPE svg  PUBLIC '-//W3C//DTD SVG 1.1//EN'  'http://www.w3.org/Graphics/SVG/1.1/DTD/svg11.dtd'><svg height="512pt" version="1.1" viewBox="0 0 512 512" width="512pt" xmlns="http://www.w3.org/2000/svg"><g id="#3b5998ff"><path d=" M 26.15 27.15 C 35.19 17.80 47.97 12.22 60.98 12.01 C 179.32 11.99 297.66 12.00 416.00 12.00 C 420.37 11.89 424.81 12.31 428.93 13.89 C 433.57 15.59 438.62 17.20 442.10 20.90 C 444.16 23.81 446.93 26.07 449.41 28.60 C 457.15 37.51 461.80 49.14 462.00 60.97 C 462.02 177.98 461.97 295.00 462.02 412.01 C 462.01 423.44 458.01 434.86 450.69 443.65 C 441.59 454.87 427.49 461.80 413.03 462.00 C 300.02 462.00 187.01 462.00 74.00 462.00 C 65.30 461.91 56.39 462.71 47.97 459.98 C 40.93 458.19 34.90 454.04 28.89 450.16 C 19.06 440.34 12.05 427.19 12.04 413.05 C 11.94 296.03 12.04 179.01 11.99 62.00 C 11.95 49.12 17.14 36.35 26.15 27.15 M 211.17 100.13 C 198.86 114.25 193.91 133.56 194.40 152.00 C 194.32 163.71 194.57 175.43 194.27 187.14 C 183.47 187.31 172.66 187.28 161.85 187.16 C 161.56 189.43 161.57 191.72 161.58 194.00 C 161.72 211.33 161.41 228.67 161.73 246.00 C 172.58 246.03 183.42 246.01 194.26 246.01 C 194.58 256.00 194.31 266.00 194.40 276.00 C 194.32 321.65 194.57 367.30 194.27 412.95 C 197.48 413.56 200.75 413.34 204.00 413.35 C 220.67 413.34 237.34 413.35 254.00 413.35 C 257.26 413.35 260.54 413.52 263.77 413.03 C 263.62 357.36 263.58 301.68 263.79 246.01 C 279.07 245.88 294.36 246.28 309.63 245.80 C 309.89 236.11 311.70 226.55 312.28 216.87 C 313.06 206.96 314.91 197.13 315.08 187.19 C 297.99 187.35 280.89 187.36 263.79 187.18 C 263.50 176.79 263.77 166.39 263.65 155.99 C 263.62 151.59 263.54 146.87 265.95 143.00 C 268.35 138.79 273.29 136.60 278.02 136.65 C 290.57 136.65 303.13 136.59 315.69 136.69 C 315.35 117.67 315.95 98.60 315.39 79.60 C 297.61 79.15 279.79 79.46 261.99 79.33 C 243.32 79.41 223.66 85.63 211.17 100.13 Z" fill="#3b5998" opacity="1.00"/></g><g id="#2c4272ff"><path d=" M 442.10 20.90 C 444.11 21.75 445.75 23.21 447.28 24.74 C 460.64 37.70 473.96 50.71 487.14 63.87 C 493.32 69.94 497.72 78.20 498.01 86.96 C 497.99 206.64 498.00 326.32 498.00 446.00 C 498.06 457.35 494.73 468.77 488.08 478.02 C 478.24 492.16 461.31 501.27 444.00 500.98 C 325.33 501.03 206.66 500.98 87.99 501.00 C 76.73 501.24 65.95 495.72 58.39 487.60 C 50.06 478.83 42.52 469.36 35.31 459.67 C 33.11 456.54 30.58 453.60 28.89 450.16 C 34.90 454.04 40.93 458.19 47.97 459.98 C 56.39 462.71 65.30 461.91 74.00 462.00 C 187.01 462.00 300.02 462.00 413.03 462.00 C 427.49 461.80 441.59 454.87 450.69 443.65 C 458.01 434.86 462.01 423.44 462.02 412.01 C 461.97 295.00 462.02 177.98 462.00 60.97 C 461.80 49.14 457.15 37.51 449.41 28.60 C 446.93 26.07 444.16 23.81 442.10 20.90 Z" fill="#2c4272" opacity="1.00"/></g><g id="#ffffffff"><path d=" M 211.17 100.13 C 223.66 85.63 243.32 79.41 261.99 79.33 C 279.79 79.46 297.61 79.15 315.39 79.60 C 315.95 98.60 315.35 117.67 315.69 136.69 C 303.13 136.59 290.57 136.65 278.02 136.65 C 273.29 136.60 268.35 138.79 265.95 143.00 C 263.54 146.87 263.62 151.59 263.65 155.99 C 263.77 166.39 263.50 176.79 263.79 187.18 C 280.89 187.36 297.99 187.35 315.08 187.19 C 314.91 197.13 313.06 206.96 312.28 216.87 C 311.70 226.55 309.89 236.11 309.63 245.80 C 294.36 246.28 279.07 245.88 263.79 246.01 C 263.58 301.68 263.62 357.36 263.77 413.03 C 260.54 413.52 257.26 413.35 254.00 413.35 C 237.34 413.35 220.67 413.34 204.00 413.35 C 200.75 413.34 197.48 413.56 194.27 412.95 C 194.57 367.30 194.32 321.65 194.40 276.00 C 194.31 266.00 194.58 256.00 194.26 246.01 C 183.42 246.01 172.58 246.03 161.73 246.00 C 161.41 228.67 161.72 211.33 161.58 194.00 C 161.57 191.72 161.56 189.43 161.85 187.16 C 172.66 187.28 183.47 187.31 194.27 187.14 C 194.57 175.43 194.32 163.71 194.40 152.00 C 193.91 133.56 198.86 114.25 211.17 100.13 Z" fill="#ffffff" opacity="1.00"/></g></svg>