<?xml version="1.0" ?><!DOCTYPE svg  PUBLIC '-//W3C//DTD SVG 1.1//EN'  'http://www.w3.org/Graphics/SVG/1.1/DTD/svg11.dtd'><svg height="512pt" version="1.1" viewBox="0 0 512 512" width="512pt" xmlns="http://www.w3.org/2000/svg"><g id="#55aceeff"><path d=" M 26.65 26.65 C 35.63 17.61 48.21 12.24 60.95 12.00 C 179.30 12.00 297.65 12.00 416.00 12.00 C 419.26 12.06 422.62 12.00 425.74 13.11 C 431.70 16.04 438.06 18.44 443.21 22.77 C 455.00 32.08 462.03 46.96 462.00 61.96 C 462.00 174.64 462.00 287.32 462.00 400.00 C 462.02 409.47 462.62 419.24 459.29 428.29 C 452.84 447.66 433.54 461.91 413.06 461.97 C 296.03 462.04 178.99 461.98 61.96 462.00 C 49.81 462.26 38.44 457.05 28.74 450.13 C 19.12 440.17 12.00 427.17 12.02 413.03 C 11.97 296.01 12.02 178.99 11.99 61.97 C 11.94 48.88 17.36 35.87 26.65 26.65 M 281.21 142.26 C 265.46 147.28 252.00 159.01 244.88 173.94 C 238.75 186.38 237.64 200.73 240.17 214.24 C 209.79 212.98 179.92 203.05 154.45 186.51 C 139.23 176.75 126.03 164.24 114.17 150.66 C 102.29 170.81 103.53 197.73 117.32 216.64 C 121.34 222.67 126.98 227.27 132.35 232.02 C 122.99 231.96 114.04 228.81 105.65 224.88 C 105.14 241.79 112.63 258.55 124.96 270.03 C 133.03 277.83 143.46 282.44 154.09 285.57 C 145.19 287.64 135.94 287.93 126.92 286.42 C 131.21 299.21 139.60 310.60 150.79 318.21 C 160.36 324.87 171.84 328.12 183.37 329.12 C 158.63 349.23 125.44 357.74 93.93 354.31 C 113.95 367.34 136.85 375.83 160.41 379.59 C 173.80 381.78 187.45 381.87 200.97 381.13 C 234.80 379.00 268.08 366.86 294.66 345.69 C 338.36 311.15 363.56 255.03 361.38 199.47 C 372.95 191.08 383.39 180.82 391.03 168.69 C 380.22 172.35 369.37 176.50 357.85 177.16 C 369.42 169.13 379.27 157.89 383.26 144.16 C 371.19 150.64 358.44 156.03 344.93 158.55 C 340.50 154.41 335.88 150.41 330.57 147.43 C 315.84 138.82 297.41 136.89 281.21 142.26 Z" fill="#55acee" opacity="1.00"/></g><g id="#2b80c1ff"><path d=" M 425.74 13.11 C 434.90 14.70 442.91 20.16 449.37 26.63 C 460.97 38.03 472.55 49.45 484.15 60.85 C 491.58 67.57 497.76 76.60 498.01 86.93 C 497.98 206.96 498.01 326.98 498.00 447.00 C 497.95 453.80 496.65 460.60 494.12 466.92 C 486.45 486.71 466.30 500.88 445.01 500.98 C 325.65 501.02 206.29 500.99 86.93 501.00 C 75.28 501.01 64.46 494.63 56.93 486.05 C 46.70 474.78 37.06 462.88 28.74 450.13 C 38.44 457.05 49.81 462.26 61.96 462.00 C 178.99 461.98 296.03 462.04 413.06 461.97 C 433.54 461.91 452.84 447.66 459.29 428.29 C 462.62 419.24 462.02 409.47 462.00 400.00 C 462.00 287.32 462.00 174.64 462.00 61.96 C 462.03 46.96 455.00 32.08 443.21 22.77 C 438.06 18.44 431.70 16.04 425.74 13.11 Z" fill="#2b80c1" opacity="1.00"/></g><g id="#f1f2f2ff"><path d=" M 281.21 142.26 C 297.41 136.89 315.84 138.82 330.57 147.43 C 335.88 150.41 340.50 154.41 344.93 158.55 C 358.44 156.03 371.19 150.64 383.26 144.16 C 379.27 157.89 369.42 169.13 357.85 177.16 C 369.37 176.50 380.22 172.35 391.03 168.69 C 383.39 180.82 372.95 191.08 361.38 199.47 C 363.56 255.03 338.36 311.15 294.66 345.69 C 268.08 366.86 234.80 379.00 200.97 381.13 C 187.45 381.87 173.80 381.78 160.41 379.59 C 136.85 375.83 113.95 367.34 93.93 354.31 C 125.44 357.74 158.63 349.23 183.37 329.12 C 171.84 328.12 160.36 324.87 150.79 318.21 C 139.60 310.60 131.21 299.21 126.92 286.42 C 135.94 287.93 145.19 287.64 154.09 285.57 C 143.46 282.44 133.03 277.83 124.96 270.03 C 112.63 258.55 105.14 241.79 105.65 224.88 C 114.04 228.81 122.99 231.96 132.35 232.02 C 126.98 227.27 121.34 222.67 117.32 216.64 C 103.53 197.73 102.29 170.81 114.17 150.66 C 126.03 164.24 139.23 176.75 154.45 186.51 C 179.92 203.05 209.79 212.98 240.17 214.24 C 237.64 200.73 238.75 186.38 244.88 173.94 C 252.00 159.01 265.46 147.28 281.21 142.26 Z" fill="#f1f2f2" opacity="1.00"/></g></svg>